<?xml version="1.0" standalone="no"?>
<!DOCTYPE svg PUBLIC "-//W3C//DTD SVG 20010904//EN"
 "http://www.w3.org/TR/2001/REC-SVG-20010904/DTD/svg10.dtd">
<svg version="1.0" xmlns="http://www.w3.org/2000/svg"
 width="149.000000pt" height="149.000000pt" viewBox="0 0 149.000000 149.000000"
 preserveAspectRatio="xMidYMid meet">
<metadata>
Created by potrace 1.16, written by Peter Selinger 2001-2019
</metadata>
<g transform="translate(0.000000,149.000000) scale(0.100000,-0.100000)"
fill="#000000" stroke="none">
<path d="M120 1195 l0 -175 175 0 175 0 0 175 0 175 -175 0 -175 0 0 -175z
m300 0 l0 -125 -125 0 -125 0 0 125 0 125 125 0 125 0 0 -125z"/>
<path d="M220 1195 l0 -75 75 0 75 0 0 75 0 75 -75 0 -75 0 0 -75z"/>
<path d="M770 1295 l0 -75 50 0 50 0 0 -50 0 -50 50 0 50 0 0 100 0 100 -25 0
c-20 0 -25 5 -25 25 0 20 -5 25 -25 25 -20 0 -25 -5 -25 -25 0 -20 5 -25 25
-25 23 0 25 -3 25 -50 0 -47 -2 -50 -25 -50 -20 0 -25 5 -25 25 0 20 -5 25
-25 25 -23 0 -25 3 -25 50 0 47 -2 50 -25 50 -24 0 -25 -2 -25 -75z"/>
<path d="M1020 1195 l0 -175 175 0 175 0 0 175 0 175 -175 0 -175 0 0 -175z
m300 0 l0 -125 -125 0 -125 0 0 125 0 125 125 0 125 0 0 -125z"/>
<path d="M1120 1195 l0 -75 75 0 75 0 0 75 0 75 -75 0 -75 0 0 -75z"/>
<path d="M570 1170 l0 -100 -25 0 c-23 0 -25 -3 -25 -50 0 -47 2 -50 25 -50
23 0 25 -3 25 -50 0 -47 -2 -50 -25 -50 -20 0 -25 -5 -25 -25 0 -20 5 -25 25
-25 20 0 25 -5 25 -25 0 -24 -2 -25 -75 -25 -73 0 -75 -1 -75 -25 0 -23 3 -25
50 -25 l50 0 0 -50 c0 -47 -2 -50 -25 -50 -20 0 -25 5 -25 25 0 23 -3 25 -50
25 -47 0 -50 -2 -50 -25 0 -20 -5 -25 -25 -25 -20 0 -25 5 -25 25 0 20 -5 25
-25 25 -20 0 -25 -5 -25 -25 0 -20 -5 -25 -25 -25 -20 0 -25 5 -25 25 0 20 -5
25 -25 25 -20 0 -25 5 -25 25 0 20 -5 25 -25 25 l-25 0 0 -100 0 -100 25 0
c23 0 25 3 25 50 0 47 2 50 25 50 20 0 25 -5 25 -25 0 -20 5 -25 25 -25 20 0
25 -5 25 -25 0 -20 5 -25 25 -25 20 0 25 5 25 25 0 20 5 25 25 25 20 0 25 -5
25 -25 0 -23 3 -25 50 -25 47 0 50 2 50 25 0 23 3 25 50 25 47 0 50 -2 50 -25
0 -20 -5 -25 -25 -25 -20 0 -25 -5 -25 -25 0 -20 5 -25 25 -25 23 0 25 -3 25
-50 0 -47 -2 -50 -25 -50 -23 0 -25 -3 -25 -50 0 -47 2 -50 25 -50 20 0 25 -5
25 -25 0 -20 -5 -25 -25 -25 -23 0 -25 -3 -25 -50 0 -47 2 -50 25 -50 23 0 25
3 25 50 0 47 2 50 25 50 23 0 25 -3 25 -50 0 -47 2 -50 25 -50 23 0 25 3 25
50 0 47 2 50 25 50 23 0 25 3 25 50 l0 50 -50 0 -50 0 0 50 0 50 50 0 c47 0
50 2 50 25 0 20 -5 25 -25 25 -20 0 -25 5 -25 25 0 20 5 25 25 25 20 0 25 5
25 25 0 20 5 25 25 25 23 0 25 -3 25 -50 l0 -50 50 0 50 0 0 50 c0 47 2 50 25
50 24 0 25 -2 25 -75 0 -73 -1 -75 -25 -75 -20 0 -25 -5 -25 -25 0 -20 -5 -25
-25 -25 -20 0 -25 5 -25 25 0 20 -5 25 -25 25 -20 0 -25 -5 -25 -25 0 -20 5
-25 25 -25 20 0 25 -5 25 -25 0 -23 3 -25 50 -25 47 0 50 -2 50 -25 0 -20 5
-25 25 -25 20 0 25 -5 25 -25 0 -20 5 -25 25 -25 20 0 25 5 25 25 0 20 5 25
25 25 20 0 25 5 25 25 0 23 3 25 50 25 l50 0 0 125 0 125 25 0 c23 0 25 -3 25
-50 l0 -50 50 0 c47 0 50 -2 50 -25 0 -20 -5 -25 -25 -25 -24 0 -25 -2 -25
-75 l0 -75 -75 0 c-73 0 -75 -1 -75 -25 0 -20 -5 -25 -25 -25 -20 0 -25 -5
-25 -25 0 -23 3 -25 50 -25 47 0 50 -2 50 -25 0 -20 5 -25 25 -25 20 0 25 5
25 25 0 23 3 25 50 25 47 0 50 -2 50 -25 0 -20 5 -25 25 -25 l25 0 0 100 0
100 -25 0 c-23 0 -25 3 -25 50 0 47 2 50 25 50 20 0 25 5 25 25 0 20 -5 25
-25 25 -23 0 -25 3 -25 50 0 47 2 50 25 50 23 0 25 3 25 50 0 47 -2 50 -25 50
-20 0 -25 5 -25 25 0 20 5 25 25 25 24 0 25 2 25 75 0 73 -1 75 -25 75 -20 0
-25 5 -25 25 0 20 5 25 25 25 20 0 25 5 25 25 0 20 -5 25 -25 25 -20 0 -25 -5
-25 -25 l0 -25 -125 0 -125 0 0 25 c0 20 -5 25 -25 25 -20 0 -25 -5 -25 -25 0
-20 5 -25 25 -25 20 0 25 -5 25 -25 0 -23 3 -25 50 -25 l50 0 0 -50 0 -50 75
0 c73 0 75 -1 75 -25 0 -20 -5 -25 -25 -25 -20 0 -25 -5 -25 -25 0 -23 -3 -25
-50 -25 -47 0 -50 2 -50 25 0 20 -5 25 -25 25 -20 0 -25 5 -25 25 0 23 -3 25
-50 25 -47 0 -50 -2 -50 -25 0 -23 3 -25 50 -25 l50 0 0 -50 0 -50 -50 0 c-47
0 -50 2 -50 25 0 20 -5 25 -25 25 -23 0 -25 -3 -25 -50 0 -47 -2 -50 -25 -50
-24 0 -25 2 -25 75 0 73 1 75 25 75 20 0 25 5 25 25 0 20 -5 25 -25 25 -20 0
-25 5 -25 25 0 20 5 25 25 25 20 0 25 5 25 25 0 20 -5 25 -25 25 -20 0 -25 5
-25 25 0 20 5 25 25 25 24 0 25 2 25 75 0 73 -1 75 -25 75 -20 0 -25 -5 -25
-25 0 -20 -5 -25 -25 -25 -20 0 -25 5 -25 25 0 20 -5 25 -25 25 -20 0 -25 -5
-25 -25 0 -20 -5 -25 -25 -25 -20 0 -25 5 -25 25 0 20 -5 25 -25 25 -20 0 -25
5 -25 25 0 23 3 25 50 25 47 0 50 2 50 25 0 23 -3 25 -50 25 -47 0 -50 2 -50
25 0 20 -5 25 -25 25 -20 0 -25 -5 -25 -25 0 -20 -5 -25 -25 -25 -23 0 -25 3
-25 50 0 47 -2 50 -25 50 l-25 0 0 -100z m50 -125 c0 -20 5 -25 25 -25 20 0
25 5 25 25 0 20 5 25 25 25 20 0 25 -5 25 -25 0 -20 5 -25 25 -25 20 0 25 -5
25 -25 0 -20 -5 -25 -25 -25 -20 0 -25 -5 -25 -25 0 -20 5 -25 25 -25 20 0 25
-5 25 -25 0 -20 5 -25 25 -25 20 0 25 5 25 25 0 20 5 25 25 25 20 0 25 -5 25
-25 0 -20 -5 -25 -25 -25 -20 0 -25 -5 -25 -25 0 -20 5 -25 25 -25 20 0 25 -5
25 -25 0 -20 5 -25 25 -25 20 0 25 -5 25 -25 0 -20 -5 -25 -25 -25 -23 0 -25
-3 -25 -50 0 -47 -2 -50 -25 -50 -20 0 -25 -5 -25 -25 0 -20 -5 -25 -25 -25
-20 0 -25 5 -25 25 0 20 5 25 25 25 23 0 25 3 25 50 0 47 -2 50 -25 50 -20 0
-25 -5 -25 -25 0 -20 -5 -25 -25 -25 -20 0 -25 -5 -25 -25 0 -20 -5 -25 -25
-25 -23 0 -25 -3 -25 -50 0 -47 -2 -50 -25 -50 -20 0 -25 -5 -25 -25 0 -20 -5
-25 -25 -25 -20 0 -25 5 -25 25 0 20 5 25 25 25 23 0 25 3 25 50 0 47 -2 50
-25 50 -20 0 -25 5 -25 25 0 20 5 25 25 25 23 0 25 3 25 50 0 47 2 50 25 50
20 0 25 5 25 25 0 20 5 25 25 25 23 0 25 3 25 50 0 47 -2 50 -25 50 -20 0 -25
5 -25 25 0 23 -3 25 -50 25 l-50 0 0 50 c0 47 2 50 25 50 20 0 25 -5 25 -25z
m500 -600 l0 -75 -75 0 -75 0 0 75 0 75 75 0 75 0 0 -75z"/>
<path d="M120 945 c0 -23 3 -25 50 -25 47 0 50 -2 50 -25 l0 -25 100 0 100 0
0 -25 c0 -20 5 -25 25 -25 20 0 25 5 25 25 0 20 -5 25 -25 25 -20 0 -25 5 -25
25 0 20 5 25 25 25 20 0 25 5 25 25 0 20 -5 25 -25 25 -20 0 -25 -5 -25 -25 0
-20 -5 -25 -25 -25 -20 0 -25 5 -25 25 0 23 -3 25 -50 25 -47 0 -50 -2 -50
-25 0 -20 -5 -25 -25 -25 -20 0 -25 5 -25 25 0 23 -3 25 -50 25 -47 0 -50 -2
-50 -25z"/>
<path d="M120 295 l0 -175 175 0 175 0 0 175 0 175 -175 0 -175 0 0 -175z
m300 0 l0 -125 -125 0 -125 0 0 125 0 125 125 0 125 0 0 -125z"/>
<path d="M220 295 l0 -75 75 0 75 0 0 75 0 75 -75 0 -75 0 0 -75z"/>
</g>
</svg>
